<svg viewBox="40.23771428571428 182.234 314.07771428571425 192.296" xmlns:xlink="http://www.w3.org/1999/xlink" xmlns="http://www.w3.org/2000/svg" style="max-height: 500px" width="314.07771428571425" height="192.296"><path d="M396.326 336.876C400.172 337.997 421.399 337.205 426.305 337.206C442.508 337.211 459.325 336.555 475.514 336.847C462.245 362.492 459.991 367.131 438.747 386.353C426.201 397.603 413.429 408.599 400.439 419.335L400.032 420.743C412.301 435.18 425.679 455.71 437.484 471.128C441.779 476.738 453.93 493.61 456.685 498.7L456.196 499.801C428.747 500.889 400.931 500.078 373.445 500.204C369.326 500.223 365.082 500.209 360.973 500.051C348.096 483.548 336.289 465.858 323.7 449.1C318.072 441.609 311.263 432.821 307.118 424.517C307.09 423.065 307.291 421.127 307.396 419.636C307.516 418.288 307.681 415.422 308.558 414.584C316.775 406.741 326.7 398.793 335.221 391.373L396.03 337.582L396.326 336.876Z" transform="matrix(0.727679 0 0 0.727865 0 -0.00012207)" fill="#216DDE"/><path d="M400.032 420.743C412.301 435.18 425.679 455.71 437.484 471.128C441.779 476.738 453.93 493.61 456.685 498.7L456.196 499.801C428.747 500.889 400.931 500.078 373.445 500.204C369.326 500.223 365.082 500.209 360.973 500.051C367.716 487.712 374.36 473.286 380.478 460.568L380.91 460.085C385.891 447.542 393.383 433.181 399.433 421.043L400.032 420.743Z" transform="matrix(0.727679 0 0 0.727865 0 -0.00012207)" fill="#39B5EF"/><path d="M400.032 420.743C412.301 435.18 425.679 455.71 437.484 471.128C441.779 476.738 453.93 493.61 456.685 498.7C452.043 497.417 435.701 488.318 430.615 485.656L380.91 460.085C385.891 447.542 393.383 433.181 399.433 421.043L400.032 420.743Z" transform="matrix(0.727679 0 0 0.727865 0 -0.00012207)" fill="#82D1F4"/><path d="M396.326 336.876C400.172 337.997 421.399 337.205 426.305 337.206C442.508 337.211 459.325 336.555 475.514 336.847C462.245 362.492 459.991 367.131 438.747 386.353C426.201 397.603 413.429 408.599 400.439 419.335C397.311 412.263 397.514 350.82 396.03 337.582L396.326 336.876Z" transform="matrix(0.727679 0 0 0.727865 0 -0.00012207)" fill="#0094F0"/><path d="M307.118 424.517C308.5 424.224 310.524 423.878 311.788 424.585C320.452 429.428 331.273 433.878 339.591 439.026C350.461 445.753 371.15 453.057 380.478 460.568C374.36 473.286 367.716 487.712 360.973 500.051C348.096 483.548 336.289 465.858 323.7 449.1C318.072 441.609 311.263 432.821 307.118 424.517Z" transform="matrix(0.727679 0 0 0.727865 0 -0.00012207)" fill="#063A9E"/><path d="M307.396 419.636C319.276 423.161 394.106 417.164 399.433 421.043C393.383 433.181 385.891 447.542 380.91 460.085L380.478 460.568C371.15 453.057 350.461 445.753 339.591 439.026C331.273 433.878 320.452 429.428 311.788 424.585C310.524 423.878 308.5 424.224 307.118 424.517C307.09 423.065 307.291 421.127 307.396 419.636Z" transform="matrix(0.727679 0 0 0.727865 0 -0.00012207)" fill="#1049B6"/><path d="M309.238 258.495C344.011 258.65 380.609 259.192 415.247 258.421C424.535 261.612 434.745 266.049 443.937 269.722C449.079 271.778 459.744 275.847 464.267 278.457C476.682 301.753 481.112 309.171 475.514 336.847C459.325 336.555 442.508 337.211 426.305 337.206C421.399 337.205 400.172 337.997 396.326 336.876C380.791 323.301 365.587 309.221 350.295 295.36C336.762 283.093 322.397 271.131 309.238 258.495Z" transform="matrix(0.727679 0 0 0.727865 0 -0.00012207)" fill="#39B5EF"/><path d="M309.238 258.495C344.011 258.65 380.609 259.192 415.247 258.421L402.871 308.44C401.035 315.878 397.42 329.038 396.412 336.224L396.326 336.876C380.791 323.301 365.587 309.221 350.295 295.36C336.762 283.093 322.397 271.131 309.238 258.495Z" transform="matrix(0.727679 0 0 0.727865 0 -0.00012207)" fill="#216DDE"/><path d="M415.247 258.421C424.535 261.612 434.745 266.049 443.937 269.722C449.079 271.778 459.744 275.847 464.267 278.457C452.832 287.143 404.359 333.006 396.412 336.224C397.42 329.038 401.035 315.878 402.871 308.44L415.247 258.421Z" transform="matrix(0.727679 0 0 0.727865 0 -0.00012207)" fill="#82D1F4"/><path d="M239.994 374.691C247.952 374.813 259.82 376.071 268.043 376.702L293.874 377.848C282.202 417.719 270.571 460.402 258.171 499.764C240.366 499.703 221.282 500.092 203.644 499.785C204.197 497.537 205.029 493.611 205.719 491.541C208.397 479.164 214.172 461.539 217.883 449.024L239.994 374.691Z" transform="matrix(0.727679 0 0 0.727865 0 -0.00012207)" fill="#063A9E"/><path d="M239.994 374.691C247.952 374.813 259.82 376.071 268.043 376.702C263.019 387.139 210.877 489.846 206.265 491.8L205.719 491.541C208.397 479.164 214.172 461.539 217.883 449.024L239.994 374.691Z" transform="matrix(0.727679 0 0 0.727865 0 -0.00012207)" fill="#216DDE"/><path d="M329.817 298.068C344.453 312.733 359.491 326.992 374.914 340.827C370.318 344.979 365.629 349.027 360.851 352.968L331.147 379.335C325.837 384.034 314.663 394.163 308.954 397.463C309.408 387.661 311.542 377.122 314.06 367.606C292.825 364.925 258.896 364.05 236.453 362.853L89.6937 354.989C85.7942 354.507 69.1673 354.244 67.1431 352.763C68.9948 352.192 79.5887 352.284 82.5512 352.168C92.1396 350.323 104.216 350.006 114.105 349.503L158.61 347.366C211.62 344.833 268.473 342.825 321.156 338.667C324.23 325.277 327.515 311.584 329.817 298.068Z" transform="matrix(0.727679 0 0 0.727865 0 -0.00012207)" fill="#82D1F4"/><path d="M105.384 353.246C135.37 352.52 167.125 353.178 197.281 353.111L360.851 352.968L331.147 379.335C325.837 384.034 314.663 394.163 308.954 397.463C309.408 387.661 311.542 377.122 314.06 367.606C292.825 364.925 258.896 364.05 236.453 362.853L89.6937 354.989C95.1605 353.372 99.7985 354.683 105.384 353.246Z" transform="matrix(0.727679 0 0 0.727865 0 -0.00012207)" fill="#063A9E"/><path d="M89.6937 354.989C85.7942 354.507 69.1673 354.244 67.1431 352.763C68.9948 352.192 79.5887 352.284 82.5512 352.168C88.5144 353.998 98.9763 352.979 105.384 353.246C99.7985 354.683 95.1605 353.372 89.6937 354.989Z" transform="matrix(0.727679 0 0 0.727865 0 -0.00012207)" fill="#1049B6"/><path d="M854.807 365.252C866.331 365.11 883.237 364.065 893.618 369.006C903.126 373.53 903.359 389.006 898.8 397.042C895.813 402.307 893.499 403.695 887.753 405.432C893.289 412.417 898.741 419.469 904.107 426.585L889.869 426.537C887.671 424.817 885.707 422.397 883.851 420.271C880.423 415.848 877.029 411.033 873.722 406.489C865.269 406.374 856.815 406.421 848.364 406.63C848.345 413.264 848.272 419.898 848.145 426.531L835.508 426.592C835.18 406.554 835.446 385.793 835.438 365.699C841.895 365.593 848.352 365.444 854.807 365.252ZM848.436 396.077C858.938 396.252 876.384 397.326 886.054 394.069C890.624 384.551 888.446 377.509 876.908 376.824C867.561 376.269 857.758 376.698 848.376 376.888L848.436 396.077Z" transform="matrix(0.727679 0 0 0.727865 0 -0.00012207)" fill="#041121"/><path d="M512.744 365.28C522.691 364.977 545.045 364.117 552.632 368.759C565.178 376.435 564.617 400.508 547.795 405.423C553.236 412.421 558.678 419.289 563.719 426.586C559.091 426.772 554.459 426.805 549.829 426.685C548.257 425.31 546.308 423.193 544.802 421.643C540.993 416.964 537.403 411.629 533.928 406.658C526.121 406.312 516.403 406.521 508.452 406.505L508.295 426.533L495.544 426.535C495.365 406.252 495.36 385.969 495.528 365.687L512.744 365.28ZM508.554 396.38C517.555 396.471 539.043 397.563 546.159 394.137C547.569 391.249 549.517 386.213 548.037 383.172C543.419 373.68 517.888 376.722 508.623 376.881L508.554 396.38Z" transform="matrix(0.727679 0 0 0.727865 0 -0.00012207)" fill="#041121"/><path d="M262.668 284.103C268.948 282.232 291.434 273.614 295.358 273.007C303.042 277.987 309.493 282.995 316.534 288.833C312.28 302.707 307.592 316.444 302.475 330.024L280.4 330.175C269.028 330.26 257.657 330.427 246.288 330.676C251.833 315.182 257.293 299.657 262.668 284.103Z" transform="matrix(0.727679 0 0 0.727865 0 -0.00012207)" fill="#216DDE"/><path d="M295.358 273.007C303.042 277.987 309.493 282.995 316.534 288.833C312.28 302.707 307.592 316.444 302.475 330.024L280.4 330.175C282.29 326.005 283.801 318.218 285.085 313.599C288.602 300.946 291.232 285.216 295.358 273.007Z" transform="matrix(0.727679 0 0 0.727865 0 -0.00012207)" fill="#39B5EF"/><path d="M1195.41 365.764C1210.5 365.316 1226.38 365.618 1241.54 365.689L1241.56 377.361C1233.87 377.37 1200.81 376.095 1196.24 377.68C1192.82 378.869 1190.18 381.493 1188.66 384.749C1185.82 390.811 1185.75 400.845 1188.08 407.07C1188.94 409.352 1190.26 411.874 1192.61 412.857C1199.49 415.742 1221.2 416.597 1227.93 413.894C1230.56 411.199 1229.87 404.27 1229.84 400.411L1205.06 400.377C1203.95 398.789 1204.37 392.829 1204.4 390.591C1216.39 389.946 1230.08 390.389 1242.23 390.553C1242.53 409.896 1248.2 428.557 1221.85 426.728C1206.25 425.645 1177.84 431.694 1174.94 408.712C1172.47 389.206 1172.04 369.925 1195.41 365.764Z" transform="matrix(0.727679 0 0 0.727865 0 -0.00012207)" fill="#041121"/><path d="M1096.52 365.695C1101.53 365.388 1105.94 365.576 1110.94 365.738C1122.25 374.42 1140.47 402.795 1150.45 415.477L1150.38 365.723L1162.82 365.689C1163.34 383.106 1164.43 403.011 1162.55 420.438C1162.21 423.607 1160.85 424.799 1158.31 426.425C1154.26 426.721 1149.03 426.556 1144.89 426.54C1135.97 420.095 1113.63 386.393 1104.86 375.82C1104.92 391.541 1105.52 411.167 1104.67 426.587L1092.22 426.557C1091.81 410.095 1091.75 392.82 1092.08 376.324C1092.18 371.42 1092.94 368.793 1096.52 365.695Z" transform="matrix(0.727679 0 0 0.727865 0 -0.00012207)" fill="#041121"/><path d="M602.939 365.159C606.019 365.156 609.383 364.994 612.265 366.277C619.04 369.293 642.512 417.558 646.471 426.613L633.002 426.603L626.309 413.493L608.836 413.447L586.985 413.467C584.815 417.821 582.371 422.316 580.104 426.645C575.74 426.809 570.736 426.692 566.325 426.678C572.12 411.843 582.08 396.755 589.098 382.392C592.215 376.012 596.014 367.489 602.939 365.159ZM592.419 403.371C597.398 403.503 602.379 403.551 607.359 403.516C611.585 403.484 616.279 403.549 620.461 403.398C617.589 397.149 610.494 381.022 605.877 376.489C601.635 384.547 595.727 395.085 592.419 403.371Z" transform="matrix(0.727679 0 0 0.727865 0 -0.00012207)" fill="#041121"/><path d="M943.569 365.151C946.495 365.131 949.821 364.98 952.613 366.008C958.68 368.242 984.155 418.733 987.776 426.609L974.008 426.562C971.544 422.479 969.017 417.696 966.671 413.485L950.086 413.412L927.275 413.435C925.782 417.039 922.559 422.928 920.696 426.584L906.825 426.554C914.52 410.503 923.779 393.898 931.933 378.007C934.611 372.788 937.886 366.795 943.569 365.151ZM933.105 403.333L947.953 403.337C952.285 403.286 957.047 403.317 961.344 403.126C958.438 397.374 950.71 380.835 946.749 376.64C941.796 385.324 937.243 394.232 933.105 403.333Z" transform="matrix(0.727679 0 0 0.727865 0 -0.00012207)" fill="#041121"/><path d="M708.426 366.009C712.023 365.615 717.442 365.691 721.182 365.631L721.225 376.944C721.227 388.953 723.909 410.902 716.143 419.259C706.122 430.196 666.401 429.215 656.457 419.871C648.18 412.093 651.033 377.453 650.99 365.671L663.414 365.686C663.545 378.151 659.871 401.301 667.389 412.007C670.718 416.748 702.362 416.034 704.688 412.125C710.547 402.28 708.585 377.488 708.426 366.009Z" transform="matrix(0.727679 0 0 0.727865 0 -0.00012207)" fill="#041121"/><path d="M781.808 365.708C786.748 365.565 792.145 365.661 797.124 365.649C789.831 375.384 782.216 384.874 774.294 394.103C780.58 400.022 786.122 408.125 791.204 415.193C793.92 418.89 796.524 422.668 799.013 426.522C794.349 426.594 789.526 426.532 784.848 426.534C777.462 418.475 772.686 409.344 763.977 400.957C758.399 400.281 751.801 400.452 746.1 400.458L745.863 426.378L733.671 426.523C732.864 409.991 732.518 382.254 733.509 365.687L745.893 365.649C746.084 373.61 746.008 382.007 746.061 390.002L762.383 389.99C768.802 383.217 776.07 373.228 781.808 365.708Z" transform="matrix(0.727679 0 0 0.727865 0 -0.00012207)" fill="#041121"/><path d="M1012.48 365.836C1020.01 364.841 1047.65 365.555 1056.49 365.625L1056.55 377.388C1046.6 377.01 1017.37 374.888 1008.46 379.942C1004.98 382.985 1004.29 389.647 1004.02 393.376C1002.2 418.853 1016.44 415.816 1035.67 414.808L1056.44 414.755L1056.49 426.646C1040.93 426.658 1014.29 429.398 999.759 421.974C995.429 419.129 992.174 412.207 991.734 407.4C989.961 388 989.02 369.489 1012.48 365.836Z" transform="matrix(0.727679 0 0 0.727865 0 -0.00012207)" fill="#041121"/><path d="M1066.89 365.721L1079.59 365.653C1080.35 372.213 1080.12 386.506 1080.12 393.398C1080.11 403.445 1080.53 416.788 1079.66 426.609L1067.07 426.576C1066.56 410.341 1065.77 381.468 1066.89 365.721Z" transform="matrix(0.727679 0 0 0.727865 0 -0.00012207)" fill="#041121"/></svg>